<?xml version="1.0" encoding="UTF-8" ?>
<!DOCTYPE svg PUBLIC "-//W3C//DTD SVG 1.1//EN" "http://www.w3.org/Graphics/SVG/1.1/DTD/svg11.dtd">
<svg width="876pt" height="886pt" viewBox="0 0 876 886" version="1.1" xmlns="http://www.w3.org/2000/svg">
<g id="#ffffffff">
<path fill="#ffffff" opacity="1.00" d=" M 426.45 151.45 C 428.11 149.63 430.74 150.07 432.95 149.75 C 432.72 151.38 432.48 153.02 432.24 154.65 C 437.51 153.96 442.77 153.02 448.10 152.91 C 453.38 152.74 458.87 151.08 464.02 152.95 C 467.76 153.99 467.76 159.66 471.96 159.99 C 478.45 161.23 483.48 156.14 489.41 154.70 C 498.33 152.63 508.33 154.63 515.33 160.69 C 520.97 165.87 522.51 173.73 525.66 180.41 C 527.79 184.82 526.14 190.07 528.46 194.40 C 532.98 203.89 539.97 212.24 542.62 222.57 C 544.01 229.62 541.63 236.64 539.21 243.17 C 536.62 250.06 532.87 256.71 527.02 261.35 C 526.93 251.80 527.47 242.14 525.31 232.76 C 523.70 225.29 520.66 218.06 515.87 212.07 C 512.27 207.23 506.82 204.34 501.70 201.40 C 503.98 196.23 509.05 193.36 513.88 190.95 C 510.44 191.63 506.95 192.04 503.45 192.04 C 504.97 189.41 506.99 187.01 507.94 184.09 C 508.95 178.83 504.04 174.11 498.99 173.95 C 496.20 174.03 493.85 176.33 491.03 175.91 C 488.29 174.46 486.05 172.23 483.35 170.73 C 475.28 166.17 465.73 164.58 456.57 165.55 C 457.72 163.74 458.90 161.94 460.11 160.16 C 454.74 160.42 449.43 158.28 444.11 159.56 C 438.09 160.32 431.99 160.60 426.05 161.92 C 420.71 163.05 415.59 164.93 410.36 166.45 C 413.18 172.13 414.36 178.78 412.15 184.88 C 407.67 181.32 404.66 175.85 398.96 173.96 C 394.05 171.52 388.73 175.43 386.76 179.92 C 388.23 183.97 390.60 187.58 393.17 191.00 C 390.36 191.00 387.56 191.00 384.76 191.00 C 385.90 197.97 382.50 204.78 377.47 209.43 C 367.70 218.32 359.11 228.87 354.18 241.23 C 351.81 246.91 349.05 253.22 342.97 255.75 C 342.75 253.86 342.56 251.98 342.38 250.09 C 339.10 251.28 335.77 252.67 333.33 255.26 C 317.49 271.70 303.08 291.02 298.54 313.88 C 294.34 332.94 298.98 353.03 308.13 369.97 C 315.33 382.87 324.91 394.29 335.27 404.76 C 347.37 417.25 362.02 427.24 378.01 434.07 C 391.91 440.13 407.00 442.78 422.01 444.24 C 421.92 434.15 422.33 424.05 421.43 414.00 C 421.12 398.98 421.20 383.96 421.04 368.95 C 416.36 366.67 411.05 366.70 405.99 367.14 C 403.04 367.65 400.84 369.86 398.60 371.67 C 396.62 369.88 394.40 367.91 394.02 365.12 C 393.49 362.34 395.65 360.21 396.95 358.03 C 401.29 362.19 407.45 361.12 412.85 360.45 C 417.28 359.78 422.36 360.34 426.02 357.25 C 425.39 337.50 427.56 317.78 426.42 298.05 C 426.47 294.76 423.08 293.45 420.85 291.82 C 422.93 288.39 425.20 283.57 429.95 283.84 C 434.84 283.20 437.97 287.94 439.38 291.96 C 437.52 293.31 435.72 294.73 433.97 296.21 C 434.10 308.49 433.81 320.79 434.10 333.07 C 435.08 341.35 434.84 349.70 434.85 358.02 C 441.64 360.45 448.93 360.56 456.05 361.00 C 459.04 361.34 461.39 359.19 463.81 357.81 C 465.17 360.36 467.61 363.22 466.26 366.28 C 465.60 368.61 463.54 370.10 461.89 371.70 C 459.51 369.90 457.18 367.74 454.14 367.23 C 449.29 366.35 444.42 367.53 439.73 368.68 C 438.69 381.41 439.06 394.19 439.00 406.96 C 439.04 419.61 438.76 432.26 438.74 444.92 C 459.68 443.35 480.57 437.70 498.46 426.48 C 510.05 419.05 520.45 409.82 529.48 399.45 C 535.75 392.35 540.27 383.96 544.60 375.60 C 550.17 365.06 550.23 352.27 557.26 342.40 C 559.48 339.01 564.10 337.68 567.87 338.97 C 573.43 340.72 578.48 344.67 580.94 350.05 C 582.42 353.15 582.13 356.73 581.80 360.05 C 580.22 368.37 574.59 375.00 570.81 382.36 C 576.90 380.91 580.32 375.43 583.88 370.82 C 584.70 369.32 586.49 369.39 587.94 369.07 C 587.62 387.61 580.64 405.73 569.61 420.52 C 558.64 435.08 543.38 445.54 528.18 455.23 C 512.23 465.66 493.62 470.94 475.13 474.74 C 462.86 476.89 450.37 475.56 438.00 475.92 C 437.89 489.97 438.16 504.02 437.76 518.06 C 436.33 536.69 437.36 555.40 436.89 574.06 C 436.98 589.68 435.78 605.26 434.74 620.84 C 433.74 628.92 433.20 637.19 430.19 644.85 C 426.02 631.27 425.54 616.91 424.74 602.83 C 423.44 591.24 424.44 579.57 423.72 567.96 C 422.83 545.32 423.29 522.65 422.92 500.00 C 422.77 491.88 423.53 483.71 422.21 475.65 C 412.64 475.61 402.83 476.32 393.55 473.45 C 376.75 468.84 359.80 461.08 348.77 447.12 C 345.82 443.80 344.75 438.99 340.95 436.45 C 342.73 442.27 346.39 447.42 347.22 453.54 C 345.50 454.03 343.81 454.71 342.01 454.84 C 330.58 453.06 319.60 447.80 311.57 439.39 C 300.08 428.05 293.05 413.07 288.09 397.91 C 284.31 386.92 282.57 375.40 279.98 364.10 C 276.05 348.34 277.94 331.72 282.20 316.23 C 283.77 309.84 286.52 303.74 287.18 297.14 C 284.73 299.40 283.34 303.69 279.31 303.04 C 278.07 290.48 281.90 277.59 289.49 267.55 C 294.81 260.58 301.45 254.79 307.72 248.71 C 311.19 245.67 311.12 240.72 312.80 236.74 C 318.60 222.78 327.94 210.15 340.21 201.23 C 348.96 195.15 358.18 189.33 365.01 180.99 C 368.49 177.43 365.95 171.79 369.04 167.97 C 373.71 161.31 382.22 159.02 389.83 157.69 C 398.87 156.00 407.99 157.82 417.04 158.01 C 421.48 158.33 423.75 154.16 426.45 151.45 Z" />
<path fill="#ffffff" opacity="1.00" d=" M 421.43 215.61 C 427.11 214.34 434.11 217.15 435.75 223.11 C 437.66 230.28 430.02 237.18 423.05 236.12 C 417.53 236.51 412.15 231.64 412.62 225.98 C 412.22 220.84 416.66 216.56 421.43 215.61 M 420.37 224.99 C 420.38 227.51 420.48 230.90 423.07 232.20 C 425.29 233.07 426.21 230.60 426.78 228.96 C 427.95 225.19 426.03 221.48 423.83 218.53 C 422.19 220.35 420.12 222.29 420.37 224.99 Z" />
<path fill="#ffffff" opacity="1.00" d=" M 468.20 215.22 C 472.64 214.41 477.46 216.19 480.29 219.71 C 482.64 222.50 482.40 226.54 481.81 229.91 C 479.53 234.90 473.30 237.61 468.06 236.04 C 463.10 234.94 458.45 230.38 458.91 225.02 C 458.90 220.00 463.47 215.99 468.20 215.22 M 471.52 218.62 C 469.77 221.13 467.06 223.60 467.85 227.00 C 467.66 230.03 469.68 232.86 472.95 232.50 C 475.10 228.00 475.37 222.29 471.52 218.62 Z" />
<path fill="#ffffff" opacity="1.00" d=" M 441.81 233.11 C 445.36 229.63 451.30 230.30 454.91 233.36 C 455.98 236.61 452.26 238.81 450.47 241.00 C 452.73 248.19 456.57 254.81 461.31 260.65 C 464.55 264.52 468.82 267.77 473.80 268.96 C 479.02 269.34 483.68 266.41 488.51 264.87 C 485.46 270.37 479.45 274.63 472.96 274.06 C 467.46 274.17 462.36 271.24 458.60 267.43 C 453.86 262.69 451.17 256.43 448.58 250.37 C 446.84 258.41 442.15 265.72 435.66 270.75 C 427.56 276.99 413.89 274.42 409.51 264.86 C 414.69 266.58 419.96 270.38 425.62 268.40 C 430.11 267.26 433.74 264.13 436.69 260.67 C 441.50 254.96 445.23 248.32 447.45 241.19 C 444.51 239.37 441.15 237.09 441.81 233.11 Z" />
<path fill="#ffffff" opacity="1.00" d=" M 379.37 241.16 C 384.54 234.77 393.36 233.69 401.05 233.55 C 411.47 233.96 422.65 237.21 429.34 245.72 C 418.07 246.66 406.30 249.92 398.17 258.23 C 394.44 261.63 392.18 266.24 388.83 269.97 C 389.67 261.64 395.32 254.71 402.00 250.09 C 406.11 247.19 411.02 245.82 415.75 244.30 C 408.17 244.92 400.45 245.96 393.60 249.49 C 388.39 251.88 384.46 256.18 379.68 259.23 C 384.33 249.07 395.21 243.01 406.02 241.94 C 411.08 240.97 416.18 241.79 421.28 241.78 C 412.25 238.78 402.64 236.47 393.08 237.79 C 388.34 238.18 384.07 240.57 379.37 241.16 Z" />
<path fill="#ffffff" opacity="1.00" d=" M 492.54 235.76 C 502.15 233.83 512.67 235.94 520.32 242.20 C 515.00 242.28 510.31 239.30 505.05 239.04 C 496.75 238.59 488.25 239.73 480.56 242.97 C 486.70 243.11 493.01 242.37 498.98 244.25 C 507.81 246.80 516.40 252.48 520.09 261.20 C 515.89 258.36 512.52 254.40 507.94 252.15 C 500.25 248.00 491.49 246.40 482.84 246.16 C 493.06 248.10 502.71 254.09 507.72 263.38 C 508.88 265.41 509.04 267.77 509.32 270.05 C 505.49 265.77 502.56 260.62 497.83 257.21 C 489.87 250.87 479.65 248.81 469.92 246.89 C 475.94 240.78 483.99 236.71 492.54 235.76 Z" />
<path fill="#ffffff" opacity="1.00" d=" M 391.22 609.43 C 392.24 608.51 393.48 607.91 394.89 608.08 C 401.79 608.05 408.85 607.58 415.58 609.44 C 420.25 611.32 421.37 617.68 418.59 621.59 C 415.81 625.94 410.29 627.36 405.40 626.98 C 405.01 626.50 404.21 625.55 403.81 625.07 C 406.23 624.91 408.84 625.32 411.07 624.16 C 415.27 621.86 415.81 614.87 411.70 612.23 C 408.91 610.18 405.27 611.12 402.08 611.12 C 401.85 620.76 402.03 630.40 401.97 640.05 C 403.81 640.70 405.67 641.28 407.53 641.93 C 402.32 643.12 396.19 644.08 391.30 641.45 C 392.88 641.17 394.47 640.91 396.06 640.68 C 396.72 637.51 397.13 634.28 397.00 631.05 C 396.80 624.39 397.48 617.67 396.14 611.09 C 394.49 610.56 392.84 610.00 391.22 609.43 Z" />
<path fill="#ffffff" opacity="1.00" d=" M 443.31 608.10 C 451.16 608.01 459.02 608.03 466.87 608.11 C 466.81 611.00 466.65 613.90 466.23 616.77 C 463.87 616.20 464.01 613.85 463.82 611.93 C 460.13 610.59 456.17 610.90 452.34 611.07 C 451.90 615.36 451.90 619.68 452.13 623.98 C 455.27 624.10 458.40 623.80 461.46 623.11 C 461.97 621.37 462.58 619.67 463.59 618.17 C 464.28 623.00 464.13 627.91 463.71 632.77 C 462.34 631.12 461.95 629.04 461.78 626.97 C 458.73 625.88 455.49 625.89 452.30 625.97 C 451.90 630.90 451.58 635.95 452.93 640.77 C 454.46 640.99 455.99 641.22 457.52 641.48 C 452.34 643.54 446.58 643.16 441.18 642.34 C 442.92 641.34 444.86 640.81 446.79 640.30 C 447.34 630.54 446.95 620.75 446.99 610.98 C 445.32 610.51 443.66 610.04 441.99 609.59 C 442.32 609.22 442.98 608.47 443.31 608.10 Z" />
<path fill="#ffffff" opacity="1.00" d=" M 479.48 655.70 C 486.08 654.03 493.62 655.70 498.69 660.32 C 506.01 668.23 504.48 682.44 495.77 688.76 C 488.90 693.65 478.79 694.35 471.96 689.00 C 464.52 682.97 463.09 671.19 468.23 663.25 C 470.85 659.42 475.02 656.82 479.48 655.70 M 478.47 658.62 C 475.60 659.81 473.15 662.16 472.17 665.14 C 470.04 671.29 470.73 678.38 474.07 683.98 C 477.33 689.47 485.03 691.87 490.72 688.79 C 495.10 686.59 497.16 681.55 497.38 676.88 C 497.76 671.79 497.22 666.20 493.88 662.10 C 490.26 657.69 483.63 656.74 478.47 658.62 Z" />
<path fill="#ffffff" opacity="1.00" d=" M 545.44 656.38 C 550.39 653.77 556.07 655.60 561.08 657.05 C 561.01 659.83 560.92 662.62 560.66 665.40 C 557.90 664.81 557.82 662.16 557.93 659.84 C 554.86 658.29 550.99 656.88 547.76 658.80 C 544.28 660.60 543.31 666.20 546.33 668.81 C 551.05 671.73 557.77 669.92 561.77 674.25 C 565.42 679.28 563.32 687.06 558.00 690.05 C 552.38 693.54 545.31 693.34 539.29 691.01 C 536.51 691.42 533.70 691.70 530.89 691.82 C 525.97 685.29 520.92 678.86 516.18 672.20 C 519.67 672.02 524.00 672.42 526.34 669.20 C 529.29 666.09 528.16 660.30 523.97 658.94 C 521.10 657.41 517.95 658.67 515.00 659.18 C 515.05 669.04 514.89 678.91 515.11 688.77 C 517.34 688.87 519.61 689.16 520.91 691.24 C 515.17 691.86 509.26 692.29 503.63 690.74 C 505.54 689.92 507.52 689.26 509.39 688.34 C 510.37 684.30 509.92 680.10 510.00 676.00 C 509.89 670.30 510.42 664.54 509.35 658.91 C 507.49 658.40 505.63 657.88 503.79 657.37 C 508.27 655.30 513.26 656.24 518.02 656.06 C 522.50 656.10 527.70 655.37 531.33 658.63 C 534.00 660.80 533.73 664.77 532.77 667.74 C 531.15 671.29 527.12 672.49 523.88 674.06 C 527.27 678.36 530.50 682.77 533.85 687.10 C 535.18 688.90 537.30 689.76 539.18 690.84 C 539.23 688.22 539.30 685.60 539.37 682.98 C 539.99 682.98 541.22 682.98 541.83 682.98 C 542.13 684.59 541.52 686.75 543.18 687.80 C 546.34 689.91 550.62 690.86 554.17 689.13 C 558.65 687.43 560.84 680.46 556.66 677.30 C 551.99 674.83 545.93 675.86 541.85 672.16 C 537.44 667.45 539.70 658.93 545.44 656.38 Z" />
<path fill="#ffffff" opacity="1.00" d=" M 288.38 656.39 C 293.35 656.35 298.84 654.90 303.48 657.15 C 301.97 657.71 300.46 658.27 298.95 658.81 C 299.90 666.85 301.73 674.74 304.04 682.49 C 308.16 673.44 310.63 663.68 315.34 654.90 C 318.01 658.69 318.76 663.36 320.42 667.61 C 322.34 672.71 323.83 677.99 326.32 682.85 C 328.39 674.92 330.84 667.09 332.66 659.10 C 330.78 658.58 328.91 658.02 327.05 657.46 C 331.19 655.76 336.07 655.23 340.27 657.03 C 338.95 657.87 337.62 658.69 336.30 659.52 C 332.57 670.53 329.71 681.81 326.56 692.99 C 325.59 692.53 323.80 693.03 323.45 691.77 C 320.46 683.11 317.37 674.49 314.18 665.90 C 309.97 674.57 307.13 683.83 303.53 692.77 C 302.60 692.66 301.68 692.52 300.76 692.36 C 297.78 681.48 295.92 670.31 292.84 659.44 C 291.32 658.47 289.83 657.46 288.38 656.39 Z" />
<path fill="#ffffff" opacity="1.00" d=" M 359.27 656.01 C 359.63 656.01 360.37 656.01 360.73 656.01 C 366.34 666.50 370.07 677.89 375.35 688.55 C 376.80 689.31 378.22 690.09 379.63 690.95 C 374.84 692.15 369.87 691.57 364.99 691.63 C 364.99 691.06 364.99 689.94 364.99 689.38 C 366.37 689.29 367.75 689.21 369.14 689.14 C 368.33 685.98 367.16 682.93 365.77 679.98 C 361.19 679.99 356.61 680.00 352.03 679.97 C 350.58 682.78 349.39 685.71 348.36 688.71 C 350.35 688.97 352.48 689.41 353.45 691.39 C 349.01 691.75 344.52 691.86 340.09 691.35 C 340.41 690.87 341.05 689.90 341.37 689.42 C 342.01 689.28 343.28 689.02 343.91 688.89 C 349.79 678.29 353.52 666.65 359.27 656.01 M 358.73 663.34 C 356.75 667.97 354.85 672.63 352.84 677.24 C 356.81 677.23 360.79 677.23 364.76 677.27 C 362.77 672.62 361.01 667.87 358.73 663.34 Z" />
<path fill="#ffffff" opacity="1.00" d=" M 379.54 657.46 C 382.92 655.11 387.19 656.32 391.02 656.07 C 396.06 656.23 401.55 655.17 406.14 657.83 C 409.37 659.85 409.74 664.34 408.48 667.62 C 406.82 671.21 402.97 672.80 399.54 674.22 C 403.71 679.13 406.93 684.90 411.83 689.16 C 413.91 691.02 416.70 689.15 419.03 688.83 C 419.18 678.94 419.28 669.05 419.02 659.16 C 417.11 658.62 415.21 658.05 413.33 657.46 C 416.82 655.20 421.11 656.26 425.01 656.05 C 430.04 656.28 435.56 655.14 440.10 657.93 C 443.81 660.62 443.95 666.67 440.81 669.88 C 438.82 672.03 435.99 673.05 433.41 674.29 C 437.52 679.01 440.70 684.52 445.28 688.83 C 447.42 691.13 450.56 689.27 453.09 688.84 C 453.16 678.95 453.18 669.06 453.07 659.17 C 451.09 658.48 449.06 657.81 447.49 656.37 C 453.23 656.20 459.35 655.00 464.78 657.44 C 462.87 658.09 460.93 658.67 458.98 659.20 C 458.68 668.97 458.78 678.76 458.97 688.54 C 460.92 689.11 462.85 689.79 464.75 690.57 C 457.68 692.95 450.19 690.83 442.94 691.61 C 440.02 691.97 438.18 689.25 436.70 687.20 C 433.23 682.03 429.15 677.32 425.55 672.24 C 428.33 671.97 431.34 672.31 433.87 670.87 C 437.64 669.01 438.35 663.37 435.72 660.31 C 432.65 657.88 428.51 657.96 424.92 658.99 C 424.73 668.94 424.78 678.90 424.86 688.86 C 426.38 689.08 427.90 689.34 429.43 689.60 C 429.43 690.11 429.44 691.13 429.45 691.63 C 422.95 691.99 416.46 691.02 409.98 691.75 C 406.95 692.51 404.86 689.80 403.31 687.67 C 399.60 682.35 395.33 677.46 391.61 672.15 C 394.39 671.97 397.36 672.24 399.93 670.89 C 404.70 668.75 404.47 660.35 399.33 658.81 C 396.66 657.49 393.73 658.63 391.01 659.07 C 390.76 668.96 390.73 678.86 391.00 688.76 C 392.93 689.21 394.85 689.74 396.74 690.39 C 391.76 692.54 386.26 691.69 381.04 691.38 C 379.17 688.90 383.68 689.35 385.05 688.81 C 385.31 678.90 385.30 669.00 385.08 659.10 C 383.24 658.52 381.38 657.99 379.54 657.46 Z" />
<path fill="#ffffff" opacity="1.00" d=" M 410.14 705.45 C 411.03 703.86 412.06 702.35 413.09 700.86 C 414.34 700.93 415.60 701.01 416.86 701.10 C 414.75 702.73 412.53 704.25 410.14 705.45 Z" />
<path fill="#ffffff" opacity="1.00" d=" M 379.15 706.10 C 380.96 706.08 382.80 706.09 384.63 706.09 C 386.85 710.49 388.78 715.04 391.15 719.37 C 393.70 715.16 395.58 710.60 398.00 706.32 C 399.73 706.31 401.46 706.30 403.20 706.31 C 402.34 706.99 401.48 707.68 400.63 708.38 C 400.75 713.07 400.22 717.82 400.84 722.49 C 401.34 722.89 402.34 723.69 402.85 724.09 C 400.26 723.99 397.67 723.98 395.10 723.97 C 395.79 723.59 397.19 722.82 397.89 722.44 C 398.04 718.48 398.03 714.52 397.96 710.57 C 395.20 715.38 393.23 720.59 390.58 725.46 C 388.36 721.03 386.35 716.50 384.04 712.12 C 383.99 715.61 383.71 719.13 384.10 722.62 C 384.65 722.99 385.74 723.73 386.28 724.10 C 383.86 724.00 381.45 723.99 379.04 723.96 C 379.78 723.59 381.26 722.86 382.00 722.50 C 382.01 717.78 382.01 713.07 382.00 708.36 C 381.04 707.60 380.09 706.85 379.15 706.10 Z" />
<path fill="#ffffff" opacity="1.00" d=" M 403.46 706.29 C 407.93 705.96 412.43 705.97 416.91 706.27 C 416.78 707.88 416.64 709.49 416.50 711.11 C 415.79 710.08 415.10 709.03 414.43 708.00 C 412.56 707.99 410.69 707.98 408.83 707.99 C 408.81 710.00 408.80 712.02 408.79 714.05 C 410.85 714.01 412.93 713.98 415.00 713.95 C 415.00 714.46 415.00 715.49 415.00 716.00 C 412.88 715.97 410.76 715.93 408.65 715.91 C 408.64 718.25 408.65 720.60 408.67 722.96 C 410.75 722.97 412.84 722.99 414.93 723.02 C 415.58 721.80 416.23 720.59 416.89 719.39 C 417.03 720.92 417.18 722.46 417.33 724.00 C 413.20 724.00 409.07 723.98 404.95 724.02 C 406.60 718.99 405.91 713.65 405.87 708.47 C 405.06 707.74 404.25 707.02 403.46 706.29 Z" />
<path fill="#ffffff" opacity="1.00" d=" M 419.20 706.51 C 420.70 706.66 422.61 705.84 423.80 707.13 C 425.28 708.67 426.24 710.61 427.39 712.40 C 429.53 709.68 431.28 705.86 435.25 705.67 C 433.06 708.51 430.33 710.96 428.62 714.15 C 430.00 717.93 432.33 721.32 435.26 724.08 C 433.74 724.03 432.23 724.00 430.73 723.98 C 429.24 721.65 427.81 719.29 426.47 716.88 C 424.94 719.27 423.35 721.64 421.76 724.00 C 421.00 724.01 419.48 724.03 418.72 724.05 C 421.16 721.34 423.99 718.65 425.22 715.16 C 423.85 711.88 421.49 709.17 419.20 706.51 Z" />
<path fill="#ffffff" opacity="1.00" d=" M 435.55 706.35 C 438.39 706.29 441.22 706.30 444.06 706.40 C 443.05 707.05 442.02 707.68 441.00 708.33 C 441.00 713.06 440.99 717.79 441.01 722.53 C 441.79 722.89 443.34 723.62 444.11 723.98 C 441.30 724.01 438.50 724.00 435.70 723.99 C 436.34 723.61 437.62 722.86 438.25 722.49 C 438.86 717.81 438.32 713.07 438.55 708.37 C 437.54 707.69 436.54 707.02 435.55 706.35 Z" />
<path fill="#ffffff" opacity="1.00" d=" M 448.72 707.71 C 452.65 705.02 457.87 705.57 462.16 707.06 C 461.90 708.38 461.66 709.72 461.41 711.07 C 458.86 706.98 452.29 706.37 449.47 710.42 C 447.49 714.14 448.14 719.96 452.36 721.84 C 455.60 723.52 459.25 721.76 462.68 721.89 C 458.82 725.48 452.50 726.13 448.31 722.76 C 443.68 719.16 443.73 710.96 448.72 707.71 Z" />
<path fill="#ffffff" opacity="1.00" d=" M 468.27 706.39 C 472.45 705.34 478.07 705.29 480.72 709.36 C 483.48 713.85 482.37 720.79 477.57 723.48 C 473.51 726.06 467.46 725.43 464.48 721.50 C 460.85 716.74 462.62 708.73 468.27 706.39 M 467.68 708.76 C 464.91 711.34 465.50 715.64 466.39 718.94 C 467.79 723.58 475.14 725.06 477.82 720.77 C 480.42 716.64 479.02 711.29 475.89 707.88 C 473.18 707.77 469.91 706.65 467.68 708.76 Z" />
</g>
<g id="#51007eff">
</g>
</svg>
